<?xml version="1.0" standalone="no"?>
<!DOCTYPE svg PUBLIC "-//W3C//DTD SVG 20010904//EN"
        "http://www.w3.org/TR/2001/REC-SVG-20010904/DTD/svg10.dtd">
<svg version="1.0" xmlns="http://www.w3.org/2000/svg"
     width="820.000000pt" height="860.000000pt" viewBox="0 0 820.000000 860.000000"
     preserveAspectRatio="xMidYMid meet">

    <g transform="translate(0.000000,860.000000) scale(0.100000,-0.100000)"
       fill="#0085ff" stroke="none">
        <path d="M2438 8189 c-1583 -62 -2150 -519 -2292 -1849 -37 -344 -39 -418 -43
-1935 -5 -1793 2 -2074 62 -2495 106 -746 359 -1172 841 -1417 289 -148 613
-223 1184 -275 178 -16 3304 -23 3614 -8 910 44 1405 196 1747 539 342 341
496 838 539 1747 15 310 8 3436 -8 3614 -52 571 -127 895 -275 1184 -306 601
-880 849 -2077 896 -294 11 -2995 11 -3292 -1z m-88 -2561 c61 -31 96 -87 155
-248 189 -524 453 -1025 689 -1308 147 -177 250 -236 319 -182 46 36 49 80 45
655 -3 525 -4 531 -27 600 -32 96 -49 127 -125 229 -37 50 -68 103 -72 122 -9
48 14 104 55 131 l34 23 517 0 517 0 34 -23 c68 -45 68 -44 69 -757 0 -382 4
-649 10 -669 14 -51 47 -81 88 -81 200 0 649 615 958 1312 56 128 80 159 146
192 l52 26 368 0 c400 0 414 -2 456 -55 87 -111 -88 -474 -587 -1220 -117
-176 -220 -334 -227 -352 -38 -88 -3 -145 246 -398 341 -348 577 -642 664
-825 42 -89 48 -180 14 -229 -12 -19 -41 -44 -63 -55 -38 -20 -54 -21 -415
-21 l-375 0 -50 24 c-53 26 -138 108 -448 433 -326 342 -533 488 -694 488 -61
0 -106 -19 -125 -53 -10 -16 -14 -117 -18 -387 -4 -321 -7 -369 -22 -397 -22
-40 -69 -68 -149 -90 -96 -26 -375 -23 -529 5 -321 59 -670 226 -959 460 -119
97 -296 274 -394 394 -161 199 -409 574 -581 880 -260 464 -476 1023 -476
1236 0 79 20 118 75 143 37 17 72 19 410 19 365 0 371 0 415 -22z"/>
    </g>
</svg>
