<?xml version="1.0" encoding="UTF-8"?>
<!DOCTYPE svg PUBLIC "-//W3C//DTD SVG 1.1//EN" "http://www.w3.org/Graphics/SVG/1.1/DTD/svg11.dtd">
<svg xmlns="http://www.w3.org/2000/svg" version="1.1" width="60px" height="59px" style="shape-rendering:geometricPrecision; text-rendering:geometricPrecision; image-rendering:optimizeQuality; fill-rule:evenodd; clip-rule:evenodd" xmlns:xlink="http://www.w3.org/1999/xlink">
    <g><path style="opacity:0.992" fill="#1b76d2" d="M 20.5,-0.5 C 26.1667,-0.5 31.8333,-0.5 37.5,-0.5C 49.114,4.11132 56.4474,12.4446 59.5,24.5C 59.5,27.5 59.5,30.5 59.5,33.5C 56.4474,45.5554 49.114,53.8887 37.5,58.5C 24.8333,58.5 12.1667,58.5 -0.5,58.5C -0.5,58.1667 -0.5,57.8333 -0.5,57.5C 2.93959,55.9451 6.27293,54.1118 9.5,52C 4.7277,47.2742 1.39436,41.7742 -0.5,35.5C -0.5,31.1667 -0.5,26.8333 -0.5,22.5C 2.66279,11.3369 9.66279,3.67025 20.5,-0.5 Z"/></g>
    <g><path style="opacity:1" fill="#e8f1fa" d="M 35.5,14.5 C 41.3365,13.5179 44.1698,15.8513 44,21.5C 41.5,24 39,26.5 36.5,29C 34.765,29.6514 33.0983,29.4847 31.5,28.5C 29.9293,30.8822 29.096,33.5488 29,36.5C 26.8333,38.6667 24.6667,40.8333 22.5,43C 16,44.5 13.5,42 15,35.5C 17.1667,33.3333 19.3333,31.1667 21.5,29C 23.4406,28.2571 25.2739,28.4238 27,29.5C 29.5586,27.6643 30.2253,25.3309 29,22.5C 31.0007,19.6693 33.1673,17.0026 35.5,14.5 Z"/></g>
    <g><path style="opacity:1" fill="#2e7ed4" d="M 37.5,16.5 C 39.9477,16.0847 41.2811,17.0847 41.5,19.5C 40.2512,22.42 38.2512,24.7534 35.5,26.5C 34.8333,25.5 34.1667,24.5 33.5,23.5C 32.6043,24.5063 31.9377,24.5063 31.5,23.5C 33.5227,21.1472 35.5227,18.8138 37.5,16.5 Z"/></g>
    <g><path style="opacity:1" fill="#2c7dd4" d="M 22.5,31.5 C 24.6477,31.3894 24.981,32.056 23.5,33.5C 24.5,34.1667 25.5,34.8333 26.5,35.5C 24.7979,38.0367 22.6312,40.0367 20,41.5C 18.3783,41.0459 17.2116,40.0459 16.5,38.5C 18.5227,36.1472 20.5227,33.8138 22.5,31.5 Z"/></g>
</svg>